<?xml version="1.0" standalone="no"?>
<!DOCTYPE svg PUBLIC "-//W3C//DTD SVG 20010904//EN"
 "http://www.w3.org/TR/2001/REC-SVG-20010904/DTD/svg10.dtd">
<svg version="1.0" xmlns="http://www.w3.org/2000/svg"
 width="2167.000000pt" height="2167.000000pt" viewBox="0 0 2167.000000 2167.000000"
 preserveAspectRatio="xMidYMid meet">

<g transform="translate(0.000000,2167.000000) scale(0.100000,-0.100000)"
fill="#000000" stroke="none">
<path d="M4413 20132 c-1379 -1341 -1812 -1767 -1805 -1773 4 -4 1597 -11
3540 -15 l3532 -7 0 -8501 0 -8501 133 -106 c72 -58 263 -211 422 -339 454
-364 574 -450 629 -450 12 0 91 56 181 128 88 70 330 262 538 426 l377 299 2
8521 3 8521 3563 3 c1960 1 3562 5 3560 10 -2 4 -183 185 -403 402 -220 217
-743 733 -1161 1147 l-761 753 -5909 -1 -5909 0 -532 -517z"/>
<path d="M1780 17553 c-156 -2 -288 -7 -293 -12 -10 -10 98 -158 358 -491 109
-140 214 -274 232 -298 l33 -44 0 -4631 0 -4632 496 -400 c783 -631 1311
-1054 1544 -1237 l215 -169 7 73 c4 40 11 1154 16 2476 7 1770 12 2406 20
2414 14 14 -17 36 600 -418 509 -374 1071 -781 1215 -878 l87 -60 0 -2596 c0
-2284 2 -2598 15 -2617 21 -30 197 -182 415 -359 581 -472 1794 -1434 1808
-1434 5 0 12 21 15 48 20 159 28 2333 30 8507 l2 6760 -3265 0 c-1796 0 -3393
-1 -3550 -2z m4530 -3919 l0 -1775 -32 23 c-18 12 -267 189 -553 393 -286 204
-703 501 -927 660 l-408 290 0 1083 0 1082 123 1 c67 1 253 5 412 8 160 4 536
8 838 9 l547 2 0 -1776z"/>
<path d="M13083 17544 c-3 -10 -3 -2938 1 -6508 7 -6035 16 -8769 30 -8783 3
-3 31 14 63 37 127 95 737 573 1561 1223 l632 498 0 2812 0 2812 63 39 c57 36
202 140 1157 837 514 375 680 492 688 484 4 -3 8 -1204 10 -2668 1 -1464 6
-2665 10 -2669 4 -4 517 400 1140 898 l1132 906 0 4638 0 4637 325 392 c179
216 325 396 325 401 0 4 -24 11 -52 14 -29 4 -689 9 -1465 12 l-1413 6 0
-1960 0 -1959 -447 -314 c-559 -390 -1080 -758 -1285 -906 -87 -62 -162 -113
-168 -113 -7 0 -10 271 -11 808 -1 444 -5 1624 -8 2622 l-6 1815 -1138 3
c-1050 2 -1138 1 -1144 -14z"/>
</g>
</svg>
